<?xml version="1.0" standalone="no"?>
<!DOCTYPE svg PUBLIC "-//W3C//DTD SVG 20010904//EN"
 "http://www.w3.org/TR/2001/REC-SVG-20010904/DTD/svg10.dtd">
<svg version="1.0" xmlns="http://www.w3.org/2000/svg"
 width="980.000000pt" height="504.000000pt" viewBox="0 0 980.000000 504.000000"
 preserveAspectRatio="xMidYMid meet">

<g transform="translate(0.000000,504.000000) scale(0.100000,-0.100000)"
fill="#000000" stroke="none">
<path d="M3286 5005 c-27 -19 -55 -35 -63 -35 -18 0 -16 -10 5 -26 15 -11 13
-13 -18 -13 -58 1 -133 -16 -163 -36 -27 -18 -32 -18 -135 -1 -92 14 -171 18
-377 16 -69 0 -103 -9 -108 -29 -4 -15 -19 -19 -115 -24 -106 -5 -152 -17
-152 -37 0 -6 8 -10 18 -10 10 0 23 -5 30 -12 9 -9 21 -8 52 1 37 11 43 10 68
-9 24 -19 34 -21 109 -15 59 5 83 4 83 -4 0 -6 -7 -11 -15 -11 -27 0 -75 -30
-75 -46 0 -12 -6 -15 -22 -10 -49 13 -98 18 -98 10 0 -5 20 -22 45 -38 25 -15
43 -31 40 -35 -4 -3 -27 -6 -52 -6 -26 0 -48 -5 -50 -11 -2 -7 15 -26 39 -43
46 -34 33 -42 -29 -16 -46 19 -53 19 -53 -4 0 -11 -6 -21 -12 -24 -24 -8 0
-18 63 -27 85 -13 186 -12 194 0 4 6 -13 19 -37 29 l-43 20 38 0 c24 1 43 8
54 20 9 11 21 17 28 15 12 -5 65 39 65 55 0 5 -10 11 -22 13 -41 6 -32 28 11
28 23 0 41 4 41 10 0 5 17 12 38 15 20 3 44 10 52 15 8 6 36 21 63 35 50 27
54 34 35 53 -18 18 3 29 73 37 64 8 79 3 79 -24 0 -26 -30 -49 -88 -66 -60
-18 -66 -37 -21 -64 30 -18 30 -19 9 -23 -24 -3 -49 -32 -38 -43 4 -4 36 -10
73 -15 36 -4 76 -15 89 -24 38 -25 80 -121 80 -183 0 -55 -1 -54 42 -37 12 5
64 -33 64 -46 0 -5 -21 -10 -47 -12 -44 -3 -48 -5 -48 -28 0 -20 6 -26 28 -28
29 -4 35 6 15 27 -11 10 -8 12 12 9 14 -2 31 -14 40 -31 14 -26 14 -29 -4 -42
-18 -14 -18 -16 -2 -33 14 -16 14 -21 2 -31 -11 -9 -15 -8 -20 4 -8 21 -23 19
-36 -5 -8 -14 -8 -32 0 -61 14 -52 44 -82 76 -76 28 5 29 4 8 -28 -15 -23 -15
-27 5 -59 34 -55 84 -87 153 -96 33 -5 66 -14 71 -19 6 -6 24 -11 39 -11 36 0
44 19 57 137 14 131 56 203 119 203 30 0 69 43 84 92 9 32 20 44 58 63 25 13
65 44 89 70 40 44 42 48 27 63 -16 16 -19 16 -47 0 l-30 -18 3 38 3 37 50 -3
50 -3 -28 25 c-27 25 -83 46 -122 46 -11 0 -27 4 -35 10 -12 7 -12 12 4 29 10
11 27 21 39 23 11 2 25 11 31 21 16 25 -4 51 -45 57 -31 5 -32 7 -11 14 31 10
20 21 -35 36 l-48 12 28 22 29 23 -24 6 c-12 4 -33 7 -45 7 -17 0 -29 13 -48
50 -14 28 -30 50 -35 50 -6 0 -10 22 -10 49 0 28 -4 53 -10 56 -11 7 -60 -38
-60 -56 0 -9 -4 -9 -14 0 -11 9 -20 9 -35 2 -11 -6 -32 -11 -47 -11 l-28 0 34
29 c38 32 37 33 -45 46 -35 5 -46 1 -89 -30z"/>
<path d="M5012 4934 c-20 -9 -3 -24 30 -24 22 0 31 -5 35 -21 5 -18 11 -20 42
-14 59 11 106 34 94 46 -11 11 -180 22 -201 13z"/>
<path d="M4929 4903 c-1 -5 -1 -12 0 -17 1 -5 -8 -5 -21 -1 -13 3 -47 9 -77
12 -43 5 -53 3 -49 -8 9 -27 70 -59 112 -59 33 -1 37 -3 24 -11 -10 -5 -18
-14 -18 -19 0 -6 8 -10 18 -10 16 -1 16 -1 0 -14 -22 -17 -23 -32 -2 -40 20
-8 38 6 76 58 37 52 35 68 -11 94 -42 24 -50 26 -52 15z"/>
<path d="M2061 4776 c-13 -14 -24 -38 -24 -58 -2 -33 -1 -33 46 -36 54 -4 62
-17 15 -28 l-33 -7 30 -13 c17 -7 43 -13 59 -14 42 0 116 38 116 59 0 22 -35
55 -48 47 -6 -3 -12 0 -15 7 -5 12 -100 67 -116 67 -4 0 -18 -11 -30 -24z"/>
<path d="M7371 4765 c-18 -8 -49 -28 -67 -45 -40 -35 -49 -37 -169 -44 -138
-7 -219 -44 -213 -95 3 -25 2 -26 -67 -32 -125 -10 -138 -23 -80 -79 25 -24
35 -43 35 -64 l0 -30 -43 42 c-46 45 -63 51 -112 38 l-30 -8 25 -19 25 -19
-28 0 c-18 0 -37 10 -53 27 -25 27 -26 28 -41 8 -10 -14 -13 -33 -9 -65 6 -46
26 -70 58 -70 22 0 58 -34 58 -55 0 -24 -26 -17 -38 10 -16 36 -49 33 -57 -5
-8 -36 -45 -67 -90 -76 -53 -10 -64 1 -22 21 56 26 60 44 51 181 l-9 119 -27
3 c-27 3 -35 -3 -83 -64 -31 -39 -31 -65 -3 -115 12 -21 18 -42 15 -46 -4 -3
-42 8 -85 25 -42 18 -85 32 -95 32 -11 0 -32 -13 -47 -30 -24 -26 -35 -30 -79
-30 -27 0 -61 -5 -74 -11 -18 -8 -30 -8 -45 0 -28 15 -117 -13 -147 -45 -17
-18 -32 -25 -52 -22 -25 3 -28 6 -25 36 3 28 0 33 -15 30 -13 -2 -19 -15 -23
-43 -4 -35 -9 -40 -40 -48 -42 -11 -59 -24 -71 -54 -7 -19 -13 -21 -44 -16
-31 5 -35 3 -35 -16 0 -12 -6 -21 -16 -21 -20 0 -74 53 -74 73 0 8 -9 26 -21
41 l-21 26 24 -9 c66 -25 208 -20 208 8 0 25 -130 101 -175 101 -11 0 -33 7
-49 15 -15 8 -43 15 -62 15 -38 0 -51 14 -32 37 24 29 -122 11 -222 -29 -81
-31 -92 -39 -236 -178 -83 -80 -167 -158 -188 -175 l-36 -30 6 -68 c5 -46 12
-71 21 -74 8 -3 40 4 70 17 30 12 58 19 62 14 4 -5 16 -30 25 -57 18 -47 39
-77 56 -77 23 0 68 53 75 86 3 20 17 47 31 59 l25 23 -20 37 c-11 20 -17 44
-14 54 4 9 29 41 57 72 28 31 61 68 73 83 17 20 30 27 50 24 43 -5 41 -34 -5
-82 -67 -69 -80 -118 -41 -157 19 -19 28 -21 83 -14 86 11 141 6 124 -10 -2
-3 -31 -10 -63 -16 -32 -6 -68 -14 -81 -19 -21 -8 -22 -12 -11 -39 14 -38 -2
-62 -27 -41 -23 19 -46 5 -46 -29 0 -66 -53 -89 -211 -90 -87 -1 -107 9 -111
59 -2 23 -8 35 -18 35 -11 0 -15 -13 -15 -54 0 -53 -1 -55 -31 -63 -17 -4 -39
-17 -49 -28 -10 -11 -23 -20 -30 -20 -6 0 -22 -12 -36 -26 -40 -42 -111 -85
-131 -78 -15 4 -19 1 -16 -13 2 -14 -4 -19 -34 -21 l-38 -3 40 -38 c34 -32 40
-44 40 -79 0 -22 -6 -44 -12 -49 -7 -4 -52 -7 -99 -5 -102 2 -99 6 -99 -120 0
-76 1 -78 30 -93 56 -29 176 -13 204 27 8 12 13 25 10 30 -19 30 108 148 159
148 16 0 45 9 63 21 l34 20 52 -48 c29 -27 70 -61 91 -77 21 -15 43 -39 49
-52 8 -18 14 -21 24 -13 7 6 10 17 7 25 -3 8 0 14 6 14 25 0 8 26 -29 48 -66
37 -129 142 -86 142 7 0 42 -23 77 -51 35 -28 72 -55 82 -60 9 -5 17 -21 17
-35 0 -15 16 -41 39 -67 22 -23 39 -49 38 -57 -1 -8 2 -16 8 -18 5 -2 14 21
20 50 8 44 15 54 36 62 36 12 57 2 64 -31 16 -72 62 -103 156 -103 86 0 99 -5
99 -41 0 -120 -97 -155 -300 -108 -104 24 -137 20 -146 -17 -9 -34 -28 -30
-167 35 -101 48 -107 52 -97 72 7 11 9 32 5 46 l-6 26 -117 -6 c-79 -3 -138
-12 -182 -26 -36 -11 -78 -21 -93 -21 -16 0 -45 -8 -64 -17 -38 -18 -99 -93
-108 -134 -3 -14 -32 -48 -63 -76 -79 -69 -110 -134 -123 -254 -14 -142 -1
-206 56 -259 15 -14 33 -37 41 -51 18 -35 120 -102 153 -101 56 1 219 21 274
33 57 13 59 13 76 -10 11 -14 38 -28 67 -36 47 -12 49 -13 52 -51 6 -95 14
-125 53 -181 72 -106 85 -195 44 -293 -14 -33 -25 -67 -25 -76 0 -9 16 -51 35
-93 19 -43 41 -106 50 -142 8 -36 30 -96 50 -133 19 -37 38 -85 41 -107 6 -35
10 -40 46 -49 40 -11 107 -6 168 12 64 20 200 169 200 220 0 10 16 36 35 57
34 37 36 42 29 88 -6 46 -4 52 25 81 17 17 50 41 72 54 23 13 42 32 47 48 12
43 5 138 -12 162 -20 29 -21 108 -1 155 9 20 64 87 123 147 118 122 170 194
179 251 l6 37 -92 -7 c-95 -7 -121 0 -121 33 0 8 -30 47 -66 86 -58 62 -78 94
-150 246 -85 179 -99 216 -62 167 14 -20 23 -25 28 -17 11 17 85 -79 125 -161
17 -36 45 -86 62 -110 46 -67 63 -105 63 -139 0 -18 6 -33 15 -36 27 -11 107
15 215 68 84 42 119 66 174 122 l70 69 -40 34 c-48 41 -76 49 -113 33 -49 -20
-89 1 -142 74 -30 40 -39 96 -16 96 6 0 37 -20 67 -45 53 -44 68 -49 118 -45
13 1 35 -8 48 -21 20 -19 39 -23 134 -29 93 -5 114 -10 137 -28 16 -13 45 -31
66 -41 28 -13 34 -20 23 -24 -24 -9 -19 -26 9 -33 17 -4 32 -1 44 10 17 16 19
14 30 -43 15 -79 67 -233 98 -296 l25 -49 24 27 c12 15 30 53 39 84 27 92 43
118 111 173 35 29 73 63 83 76 10 12 31 26 47 30 16 4 41 14 56 22 15 9 29 14
31 11 41 -50 87 -128 87 -146 0 -24 4 -27 53 -38 36 -7 52 -46 62 -142 5 -48
16 -91 36 -130 16 -32 29 -63 29 -70 0 -15 58 -83 71 -83 28 0 -8 93 -60 152
-37 43 -51 71 -51 101 0 33 20 87 32 87 5 0 35 -25 67 -55 61 -58 82 -65 120
-39 60 42 58 117 -4 195 -19 24 -35 51 -35 60 0 32 45 60 113 69 36 6 83 17
104 26 105 44 126 59 158 109 62 98 70 116 59 123 -6 4 -11 22 -12 40 0 18
-10 49 -21 68 -28 46 -27 56 9 82 17 13 30 26 30 31 0 5 -21 13 -47 17 -39 7
-49 13 -51 31 -6 38 94 84 113 52 4 -5 21 -9 38 -7 26 3 34 -2 46 -27 8 -16
19 -33 25 -37 6 -4 16 -27 21 -50 9 -35 15 -43 34 -43 35 0 43 33 20 85 -10
23 -19 50 -19 60 0 26 94 120 120 120 34 0 72 25 126 82 89 94 136 228 100
283 -13 20 -24 25 -60 25 -55 0 -75 20 -56 55 18 33 138 135 180 153 27 11 66
13 178 10 78 -3 142 -1 142 3 0 15 63 80 92 95 27 14 32 14 65 -6 l35 -20 36
28 c46 36 72 46 72 28 0 -12 -66 -78 -198 -199 -43 -39 -52 -53 -52 -82 0 -47
19 -129 34 -151 13 -16 15 -15 31 17 10 19 35 53 56 76 22 24 39 47 39 52 0 6
9 19 21 30 17 15 19 23 10 39 -18 34 -12 67 17 95 22 21 45 29 120 41 55 8
113 25 141 40 26 13 74 32 107 41 32 9 65 18 73 21 10 3 2 18 -29 49 l-44 45
63 0 c57 0 66 -3 91 -30 15 -16 34 -30 42 -30 11 1 75 77 87 103 5 13 -41 57
-60 57 -9 0 -20 -6 -23 -12 -4 -9 -9 -7 -18 7 -7 11 -32 39 -55 62 -76 76
-263 111 -288 55 -7 -17 -15 -21 -30 -17 -42 12 -142 25 -203 25 -58 0 -63 2
-72 25 -14 38 -70 58 -135 50 -60 -8 -113 6 -140 35 -14 16 -31 20 -76 20 -31
0 -59 5 -61 11 -5 14 -83 31 -112 23 -13 -3 -29 -19 -37 -37 l-14 -32 -94 3
c-83 3 -96 1 -115 -18 l-23 -20 -44 33 c-24 19 -55 37 -67 41 l-24 8 22 23
c25 27 19 33 -42 41 -33 5 -47 2 -57 -10 -18 -22 -123 -22 -141 -1 -9 11 -32
15 -81 15 -37 0 -79 4 -93 10 -20 7 -41 4 -92 -16 -101 -38 -108 -25 -14 26
94 50 140 85 140 106 0 23 -56 44 -120 44 -33 0 -60 4 -60 10 0 5 -11 12 -25
16 -16 4 -25 13 -25 25 0 22 -4 23 -49 4z m-1816 -1372 c-21 -50 -18 -62 36
-118 59 -62 57 -80 -9 -78 -20 0 -85 2 -143 4 -93 3 -110 1 -141 -18 -20 -12
-39 -19 -42 -16 -22 22 11 126 60 191 32 41 61 40 89 -5 22 -36 50 -45 42 -14
-6 23 15 44 58 59 46 16 58 15 50 -5z m406 -9 c11 -14 7 -20 -27 -49 l-39 -33
34 -36 c19 -20 40 -36 47 -36 14 0 27 -28 18 -41 -3 -5 -12 -9 -20 -9 -17 0
-17 0 2 -38 8 -18 14 -44 12 -59 -3 -26 -7 -28 -50 -31 -40 -3 -52 1 -74 23
-17 18 -23 31 -19 43 18 42 15 61 -14 107 -49 77 -39 123 32 156 52 23 80 24
98 3z"/>
<path d="M6265 4708 c-96 -27 -185 -71 -225 -113 -68 -70 24 -64 96 6 20 19
62 41 115 58 101 34 139 51 139 63 0 13 -49 7 -125 -14z"/>
<path d="M1784 4661 c10 -10 16 -27 14 -37 -2 -15 6 -20 46 -25 26 -4 54 -10
62 -13 19 -7 18 9 -2 28 -20 20 -44 34 -96 52 -41 14 -41 14 -24 -5z"/>
<path d="M1960 4626 c0 -16 22 -26 53 -26 22 1 22 1 -2 20 -27 23 -51 26 -51
6z"/>
<path d="M1563 4573 c9 -2 23 -2 30 0 6 3 -1 5 -18 5 -16 0 -22 -2 -12 -5z"/>
<path d="M3818 4573 c6 -2 18 -2 25 0 6 3 1 5 -13 5 -14 0 -19 -2 -12 -5z"/>
<path d="M1352 4533 c-73 -25 -89 -45 -41 -51 15 -2 32 5 44 18 10 11 30 20
45 20 25 0 50 16 50 32 0 12 -18 9 -98 -19z"/>
<path d="M1640 4485 c0 -31 -3 -35 -27 -35 -14 0 -35 8 -45 17 -24 21 -78 20
-112 -2 -42 -28 -32 -38 32 -32 63 7 98 -5 72 -24 -12 -8 -10 -10 10 -6 14 3
52 9 85 13 76 8 101 20 84 40 -6 8 -20 14 -31 14 -10 0 -30 11 -43 25 l-25 24
0 -34z"/>
<path d="M2038 4513 c6 -2 18 -2 25 0 6 3 1 5 -13 5 -14 0 -19 -2 -12 -5z"/>
<path d="M5955 4496 c-28 -28 -32 -46 -12 -46 8 0 26 -13 40 -30 17 -18 37
-30 52 -30 30 0 29 -1 9 38 -8 18 -14 44 -12 59 3 24 -1 28 -24 31 -19 2 -36
-5 -53 -22z"/>
<path d="M2131 4501 c-19 -12 -5 -67 22 -86 17 -12 53 -15 159 -15 147 0 170
8 127 43 -21 17 -34 19 -112 13 -113 -9 -156 -1 -167 30 -11 27 -10 27 -29 15z"/>
<path d="M1879 4481 c-21 -18 -22 -20 -5 -21 10 0 25 -8 32 -17 17 -24 49 -5
49 28 0 32 -42 38 -76 10z"/>
<path d="M1254 4382 c-6 -4 -22 -31 -35 -61 l-23 -54 23 -19 c45 -35 68 -34
114 9 23 21 57 48 75 58 51 31 43 41 -52 61 -71 15 -87 16 -102 6z"/>
<path d="M2052 4358 c-13 -13 -16 -56 -6 -82 5 -14 9 -13 31 4 14 11 31 20 38
20 12 0 45 31 45 42 0 3 -16 9 -36 12 -19 4 -41 9 -47 12 -7 2 -18 -1 -25 -8z"/>
<path d="M1901 4341 c-7 -5 -10 -14 -7 -20 4 -6 -4 -16 -18 -22 l-24 -11 44
-34 c38 -29 47 -32 68 -22 34 15 41 39 17 58 -10 8 -21 24 -23 35 -4 22 -35
31 -57 16z"/>
<path d="M2248 4332 c-31 -19 -62 -76 -54 -98 3 -8 17 -14 31 -14 26 0 34 -15
13 -23 -22 -8 -5 -15 74 -31 102 -21 180 -22 172 -1 -4 8 -2 15 3 15 18 0 93
-60 93 -74 0 -8 10 -16 23 -20 12 -3 35 -19 51 -35 l28 -30 -22 -31 c-12 -17
-20 -37 -17 -44 4 -10 -6 -16 -31 -21 -60 -10 -72 -16 -72 -32 0 -13 9 -14 53
-9 52 7 56 5 98 -30 49 -41 125 -81 135 -71 3 3 -4 18 -16 34 -25 32 -13 40
28 19 57 -29 58 14 1 72 -58 61 -43 109 19 57 35 -30 62 -32 92 -7 l22 18 -54
36 c-29 19 -63 38 -74 42 -12 3 -31 18 -44 31 l-23 25 21 0 c12 0 22 4 22 8 0
27 -131 102 -178 102 -14 0 -26 8 -31 24 -14 34 -73 50 -98 25 -6 -6 -23 -9
-39 -7 -24 2 -29 8 -29 31 -1 46 -49 62 -94 31 -20 -14 -23 -23 -18 -59 6 -56
-5 -75 -27 -44 -22 32 -30 83 -17 108 15 27 -2 28 -41 3z"/>
<path d="M1686 4313 c-3 -3 -6 -19 -6 -35 0 -28 -1 -28 -24 -13 -14 9 -51 19
-83 21 -32 3 -68 10 -80 16 -27 13 -68 3 -94 -23 -23 -23 -17 -35 21 -41 14
-2 24 -9 23 -16 -2 -6 -4 -17 -5 -24 -2 -7 20 -17 52 -24 l55 -12 -45 -1 c-55
-2 -83 -16 -60 -31 8 -5 27 -10 41 -10 15 0 30 -7 33 -16 5 -13 24 -15 148 -9
167 8 175 9 158 30 -10 12 -9 15 9 15 30 0 26 13 -9 34 -17 9 -45 42 -61 72
-30 53 -60 80 -73 67z"/>
<path d="M2029 4222 c-30 -25 -20 -65 21 -82 53 -22 86 10 56 55 -26 39 -50
48 -77 27z"/>
<path d="M181 4155 c-47 -24 -94 -53 -105 -64 -18 -19 -19 -23 -5 -36 8 -8 39
-28 68 -43 29 -15 54 -32 55 -37 0 -6 -37 -12 -84 -15 -92 -5 -134 -20 -90
-30 14 -3 25 -12 25 -20 0 -12 15 -15 70 -15 59 0 70 -3 73 -18 5 -25 -16 -47
-43 -47 -37 0 -55 -10 -70 -41 -21 -40 -19 -49 12 -49 25 0 25 -1 10 -18 -21
-23 -13 -32 29 -32 18 0 34 -6 37 -14 6 -15 47 -30 111 -41 l39 -6 -43 -45
c-24 -24 -42 -46 -39 -49 7 -6 98 57 126 86 82 89 115 119 136 119 21 -1 21
-1 -5 -21 -30 -22 -37 -49 -14 -49 7 0 29 13 49 29 34 27 39 28 93 19 76 -12
172 -44 208 -70 25 -18 34 -19 58 -10 24 9 32 7 52 -11 42 -39 186 -238 192
-265 12 -55 16 -62 50 -83 37 -23 55 -20 34 6 -20 25 -6 27 24 4 36 -29 51
-58 36 -73 -8 -8 -14 -6 -23 9 -11 19 -11 19 -18 -5 -10 -37 -10 -136 1 -213
15 -104 69 -197 139 -241 25 -16 48 -45 70 -87 51 -98 85 -149 98 -149 6 0 17
-15 23 -34 11 -33 36 -63 45 -54 2 2 -24 49 -60 104 -35 54 -65 104 -65 111 0
25 20 23 43 -4 14 -15 62 -71 107 -123 49 -56 94 -120 111 -157 28 -61 31 -63
111 -102 46 -22 112 -45 147 -51 36 -6 90 -24 120 -39 31 -16 69 -31 86 -35
16 -4 61 -38 100 -75 39 -37 85 -73 103 -80 29 -12 35 -12 52 4 11 10 26 15
35 12 23 -9 18 -46 -7 -56 -48 -18 -79 -73 -89 -155 -5 -44 -16 -71 -45 -113
-29 -42 -40 -70 -46 -117 -7 -59 -6 -64 42 -164 66 -137 101 -186 165 -228 31
-21 59 -48 66 -65 22 -54 -9 -360 -52 -518 -25 -89 -28 -164 -9 -208 12 -28
12 -40 0 -90 -13 -50 -18 -58 -37 -56 -20 2 -21 0 -13 -21 5 -13 14 -52 20
-87 20 -110 51 -143 113 -120 18 7 27 18 27 33 0 12 17 49 37 82 36 58 36 60
20 89 -17 28 -16 30 8 59 14 16 28 42 31 56 13 62 22 78 48 90 15 8 32 25 38
38 6 13 22 27 35 29 13 3 35 8 51 11 15 3 35 13 44 21 22 20 23 66 3 83 -24
20 -18 25 28 22 53 -4 101 24 120 70 8 18 34 57 59 86 28 33 50 71 57 98 13
50 55 85 127 103 65 17 99 72 128 202 11 51 31 100 61 150 24 41 46 90 47 108
3 30 -1 37 -37 57 -70 41 -99 52 -155 59 -35 5 -62 15 -74 27 -15 16 -28 19
-67 16 -37 -4 -46 -2 -42 9 3 9 -3 13 -20 13 -14 0 -27 -7 -31 -15 -3 -8 -10
-15 -16 -15 -15 0 -12 36 5 50 24 20 18 62 -16 102 -28 35 -52 47 -130 62 -14
3 -42 18 -62 33 -102 78 -140 91 -326 112 -44 5 -55 10 -57 26 -4 31 -33 45
-90 45 -46 0 -55 4 -78 31 -20 24 -26 41 -26 79 0 27 -5 52 -11 55 -6 4 -37 9
-70 12 -32 3 -59 6 -59 7 0 0 9 30 20 64 11 35 20 72 20 83 0 33 -40 22 -91
-26 -55 -51 -83 -56 -136 -23 -48 29 -66 75 -57 147 9 79 36 136 73 155 17 9
55 16 90 16 34 0 63 5 67 11 8 14 142 6 173 -11 12 -6 21 -21 21 -33 0 -26 54
-96 66 -85 6 7 -12 90 -31 140 -5 13 14 39 69 97 69 72 76 84 76 120 0 30 5
43 20 51 11 6 27 24 36 41 8 17 30 37 47 44 18 7 47 32 66 55 21 27 54 51 88
66 69 31 79 30 53 -3 -29 -37 -12 -39 52 -7 l53 27 -30 10 c-52 17 -78 47 -71
86 l5 33 -40 -6 c-23 -4 -55 -14 -73 -23 -29 -15 -30 -15 -18 0 38 46 102 75
179 82 43 4 90 13 105 21 28 14 78 19 78 7 0 -3 -14 -30 -30 -60 -17 -29 -30
-55 -30 -58 0 -3 29 -5 64 -5 44 0 67 -5 76 -15 21 -25 34 -17 16 10 -9 13
-16 31 -16 39 0 8 -12 21 -27 28 -25 12 -29 20 -33 73 -6 75 -13 85 -55 85
-24 0 -33 4 -29 13 2 7 -16 32 -41 57 -26 25 -45 53 -45 66 0 18 -53 104 -65
104 -2 0 -15 -11 -29 -25 -19 -19 -35 -25 -71 -25 -43 0 -45 1 -45 29 0 56
-131 142 -196 129 -15 -2 -20 -15 -24 -58 -3 -30 -9 -61 -13 -68 -5 -8 1 -29
16 -55 23 -39 24 -45 12 -74 -7 -17 -23 -36 -34 -43 -17 -9 -21 -20 -21 -60 0
-26 -3 -55 -6 -64 -16 -42 -81 6 -91 68 -3 20 -11 40 -17 43 -12 8 -104 42
-204 76 -47 16 -64 28 -68 44 -3 12 -17 29 -30 38 -41 27 -33 76 21 134 30 32
43 54 39 65 -3 9 -1 16 6 16 18 0 110 42 110 50 0 4 -14 10 -30 14 -41 8 -38
26 5 26 24 0 37 6 45 20 6 11 20 20 30 20 11 0 20 5 20 10 0 6 18 9 42 8 34
-2 43 1 46 15 2 10 -5 28 -15 39 -13 15 -15 22 -5 25 20 8 14 22 -20 43 -43
26 -48 25 -48 -10 0 -16 -5 -30 -11 -30 -5 0 -15 -13 -20 -29 -10 -29 -33 -46
-50 -36 -4 3 -11 21 -15 40 -6 34 -26 46 -39 25 -11 -17 -23 -11 -27 12 -5 40
-35 32 -94 -23 l-56 -53 -16 22 c-13 16 -21 19 -32 12 -21 -13 -135 -12 -181
2 -51 15 -89 -1 -89 -37 0 -30 -11 -32 -34 -6 -12 13 -38 21 -82 26 -43 4 -78
15 -100 30 -38 26 -131 50 -249 66 -112 14 -123 13 -188 -15 -72 -33 -87 -33
-57 -1 l24 25 -50 -17 c-70 -24 -147 -21 -219 9 -38 16 -89 28 -140 32 -44 3
-118 13 -165 21 -135 24 -163 21 -259 -30z m2389 -2241 c0 -9 -5 -14 -12 -12
-18 6 -21 28 -4 28 9 0 16 -7 16 -16z"/>
<path d="M3823 4163 c-20 -8 -15 -21 9 -25 16 -2 24 -12 28 -33 10 -57 81 -67
177 -25 47 21 53 38 24 64 -15 14 -34 17 -90 14 -48 -2 -71 -7 -71 -15 0 -18
-7 -16 -30 7 -21 21 -26 22 -47 13z"/>
<path d="M1950 4115 c0 -17 29 -34 48 -28 17 7 15 30 -4 37 -26 10 -44 7 -44
-9z"/>
<path d="M2553 4045 c-3 -9 -3 -18 0 -22 10 -10 37 6 37 22 0 20 -29 20 -37 0z"/>
<path d="M2306 3923 c-10 -26 -6 -60 8 -72 12 -10 20 -9 39 4 13 8 31 13 40
10 8 -4 18 -2 21 4 3 5 -18 23 -48 39 -45 24 -56 27 -60 15z"/>
<path d="M4329 3807 c-15 -33 6 -107 32 -114 25 -7 26 -59 2 -85 -14 -15 -15
-23 -6 -37 9 -14 9 -21 0 -30 -17 -17 68 -14 102 4 37 18 45 42 26 69 -8 12
-31 43 -50 70 -21 29 -35 60 -35 77 0 17 -6 32 -15 35 -8 4 -15 12 -15 20 0
23 -30 16 -41 -9z"/>
<path d="M4227 3670 c-26 -28 -32 -45 -29 -82 4 -36 74 -11 92 33 15 36 5 79
-18 79 -9 -1 -29 -14 -45 -30z"/>
<path d="M8460 3545 c0 -70 10 -95 24 -59 8 20 8 82 0 112 -13 45 -24 20 -24
-53z"/>
<path d="M8450 3405 c0 -25 14 -34 24 -16 8 12 -3 41 -15 41 -5 0 -9 -11 -9
-25z"/>
<path d="M8448 3303 c-9 -10 -19 -28 -22 -40 -7 -20 -4 -23 22 -23 40 0 92 19
92 34 0 7 -16 20 -35 29 -43 21 -39 21 -57 0z"/>
<path d="M4706 3163 c-8 -19 8 -38 23 -29 16 10 13 46 -3 46 -8 0 -17 -8 -20
-17z"/>
<path d="M8401 3137 c-11 -25 -31 -53 -46 -63 -14 -11 -39 -29 -55 -41 -15
-13 -39 -23 -53 -23 -32 0 -77 -17 -77 -28 0 -5 23 -7 50 -4 44 4 50 2 44 -12
-5 -14 3 -13 52 9 31 14 64 31 71 37 24 19 54 86 56 125 3 53 -19 53 -42 0z"/>
<path d="M4845 3070 c3 -5 15 -10 26 -10 10 0 19 5 19 10 0 6 -12 10 -26 10
-14 0 -23 -4 -19 -10z"/>
<path d="M8206 2954 c-11 -7 -16 -17 -13 -21 4 -4 15 1 24 10 22 21 14 30 -11
11z"/>
<path d="M8130 2928 c0 -12 4 -30 10 -38 8 -12 10 -12 15 2 9 23 3 50 -12 56
-8 2 -13 -5 -13 -20z"/>
<path d="M7850 2661 c-13 -26 -13 -31 5 -31 9 0 15 9 15 25 0 30 -6 32 -20 6z"/>
<path d="M7537 2523 c-13 -12 -7 -33 8 -33 8 0 15 9 15 20 0 20 -11 26 -23 13z"/>
<path d="M7861 2477 c-16 -20 -26 -77 -13 -77 16 0 42 41 42 67 0 26 -12 30
-29 10z"/>
<path d="M2420 2406 c0 -6 130 -66 142 -66 21 0 -8 23 -56 46 -46 21 -86 31
-86 20z"/>
<path d="M2681 2311 c-19 -12 -5 -31 24 -31 13 0 27 5 31 11 7 11 -12 29 -31
29 -5 0 -16 -4 -24 -9z"/>
<path d="M6720 2196 c0 -36 15 -55 31 -39 11 11 -8 73 -22 73 -5 0 -9 -15 -9
-34z"/>
<path d="M7948 2209 c-24 -13 -23 -36 1 -49 29 -15 51 -2 51 31 0 31 -19 38
-52 18z"/>
<path d="M7700 2115 c-19 -20 -58 -54 -87 -77 -29 -23 -51 -43 -49 -45 10 -10
107 32 131 57 16 16 43 33 62 36 38 7 46 37 14 54 -29 15 -34 13 -71 -25z"/>
<path d="M7519 1853 c28 -32 81 -96 118 -142 78 -97 99 -113 113 -91 17 27 11
49 -34 108 -62 81 -189 182 -229 182 -14 0 -7 -13 32 -57z"/>
<path d="M8035 1841 c-18 -36 -71 -55 -132 -48 l-45 5 6 -32 c13 -66 43 -86
150 -99 44 -5 92 124 67 179 -14 32 -27 30 -46 -5z"/>
<path d="M8500 1726 c0 -18 39 -31 52 -18 15 15 0 32 -28 32 -14 0 -24 -6 -24
-14z"/>
<path d="M8145 1719 c-9 -13 14 -99 26 -99 5 0 9 12 9 26 0 23 2 25 16 13 13
-10 17 -10 25 2 11 18 11 26 -1 50 -12 21 -64 27 -75 8z"/>
<path d="M8630 1695 c-14 -8 -42 -14 -63 -15 -53 0 -43 -20 16 -35 52 -13 107
-58 107 -87 0 -37 85 -51 141 -23 32 17 33 17 99 -33 50 -39 62 -29 30 23 -32
51 -107 114 -175 146 -77 36 -123 43 -155 24z"/>
<path d="M9010 1605 l-25 -14 26 -1 c15 0 32 7 39 15 17 20 -5 20 -40 0z"/>
<path d="M5813 1564 c-15 -21 -42 -43 -60 -51 -31 -12 -33 -17 -33 -60 0 -26
-7 -66 -16 -88 -23 -61 -9 -109 33 -113 41 -4 55 17 93 133 37 117 49 215 27
215 -9 0 -29 -16 -44 -36z"/>
<path d="M7803 1565 c16 -9 60 -18 100 -21 l72 -4 -40 15 c-22 9 -67 18 -100
21 -59 5 -60 5 -32 -11z"/>
<path d="M8490 1413 c-8 -3 -29 -20 -46 -38 -29 -30 -35 -32 -78 -28 -45 5
-48 4 -85 -36 -21 -22 -42 -41 -48 -41 -5 0 -16 -11 -23 -25 -15 -28 -57 -57
-135 -93 -61 -28 -105 -69 -105 -96 0 -11 15 -72 34 -135 19 -64 37 -133 41
-153 8 -49 39 -59 95 -29 22 12 55 21 73 21 19 0 47 10 67 25 18 13 62 34 98
46 109 36 173 17 220 -66 9 -16 13 -15 40 16 l31 34 1 -27 c0 -15 5 -30 11
-34 6 -3 20 -26 31 -50 26 -61 55 -77 147 -82 72 -4 79 -3 109 23 19 16 53 69
84 130 82 166 73 217 -66 380 -49 57 -81 105 -91 136 -9 27 -26 54 -41 63 -15
10 -24 26 -24 41 0 15 -6 25 -14 25 -14 0 -24 -23 -46 -107 -7 -27 -17 -43
-26 -43 -22 0 -107 45 -128 69 -18 20 -18 22 -2 40 17 19 17 20 -3 30 -20 11
-94 14 -121 4z"/>
<path d="M9710 640 c-11 -21 3 -100 19 -100 8 0 41 43 60 79 11 19 11 22 -1
19 -7 -3 -25 1 -40 8 -25 13 -28 12 -38 -6z"/>
<path d="M8874 525 c-10 -24 24 -67 49 -63 29 4 33 32 8 57 -25 25 -49 27 -57
6z"/>
<path d="M9629 513 c-40 -26 -139 -126 -139 -140 0 -8 14 -13 39 -13 41 0 34
-7 124 131 21 33 9 44 -24 22z"/>
</g>
</svg>
